<?xml version="1.0"?>
<!-- Created with xTool Creative Space (https://www.xtool.com/pages/software) -->
<svg xmlns="http://www.w3.org/2000/svg" xmlns:xlink="http://www.w3.org/1999/xlink" xmlns:xcs="https://www.xtool.com/pages/software" version="1.1" preserveAspectRatio="xMinYMin meet" width="116.97326490614154mm" height="31.721981748976987mm" viewBox="183.905501446046 123.89959384599655 116.97326490614154 31.721981748976987" xcs:version="2.6.38"><style></style>
<path transform="matrix(0.470371,0,0,0.470371,102.044446,95.860598)" stroke="none" fill="#000000" data-view-type="laser" d="M 201.210938 68.554688 C 200.558594 68.25 201.355469 66.539062 202.335938 64.425781 C 203.316406 62.316406 204.109375 60.605469 204.765625 60.910156 C 205.421875 61.214844 204.625 62.925781 203.644531 65.039062 C 202.660156 67.148438 201.867188 68.859375 201.210938 68.554688 Z M 202.945312 62.253906 C 200.402344 67.726562 174.035156 127.050781 174.035156 127.050781 C 174.035156 127.050781 202.261719 68.578125 204.960938 63.058594 C 206.917969 59.054688 204.824219 58.210938 202.945312 62.253906 " fill-rule="nonzero"></path><path transform="matrix(0.470371,0,0,0.470371,102.044446,95.860598)" stroke="none" fill="#000000" data-view-type="laser" d="M 212.09375 67.746094 C 212.050781 67.808594 211.96875 67.828125 211.902344 67.789062 C 210.902344 67.167969 209.816406 66.671875 208.699219 66.261719 C 207.535156 65.832031 206.339844 65.496094 205.128906 65.214844 C 202.703125 64.660156 200.21875 64.335938 197.730469 64.210938 C 195.242188 64.082031 192.738281 64.15625 190.269531 64.464844 C 189.03125 64.625 187.804688 64.84375 186.601562 65.144531 C 186.300781 65.230469 186 65.300781 185.703125 65.394531 L 185.257812 65.523438 L 184.8125 65.671875 C 184.664062 65.71875 184.519531 65.769531 184.375 65.824219 C 184.230469 65.878906 184.082031 65.929688 183.941406 65.984375 C 183.652344 66.101562 183.363281 66.210938 183.082031 66.34375 C 182.800781 66.464844 182.523438 66.609375 182.246094 66.746094 C 182.109375 66.816406 181.976562 66.894531 181.84375 66.96875 C 181.773438 67.003906 181.707031 67.039062 181.640625 67.082031 L 181.246094 67.320312 C 181.179688 67.359375 181.113281 67.402344 181.050781 67.445312 L 180.671875 67.707031 C 180.425781 67.890625 180.179688 68.074219 179.949219 68.277344 C 179.488281 68.679688 179.054688 69.117188 178.6875 69.605469 C 178.324219 70.09375 178.019531 70.621094 177.789062 71.183594 L 177.703125 71.394531 C 177.675781 71.464844 177.648438 71.539062 177.628906 71.609375 L 177.496094 72.046875 L 177.398438 72.492188 C 177.378906 72.566406 177.371094 72.644531 177.359375 72.71875 L 177.328125 72.945312 C 177.320312 73.019531 177.304688 73.09375 177.300781 73.171875 L 177.289062 73.402344 C 177.28125 73.554688 177.265625 73.707031 177.273438 73.859375 C 177.273438 74.011719 177.273438 74.164062 177.28125 74.316406 L 177.316406 74.777344 C 177.386719 75.386719 177.5 75.992188 177.675781 76.585938 L 177.742188 76.808594 L 177.773438 76.917969 L 177.8125 77.027344 L 177.96875 77.457031 C 178.097656 77.730469 178.214844 78.015625 178.378906 78.269531 C 178.457031 78.402344 178.53125 78.535156 178.621094 78.65625 C 178.710938 78.78125 178.796875 78.90625 178.890625 79.027344 L 179.1875 79.375 C 179.234375 79.433594 179.289062 79.488281 179.34375 79.542969 L 179.507812 79.703125 C 179.945312 80.128906 180.425781 80.515625 180.953125 80.839844 C 181.015625 80.878906 181.078125 80.925781 181.144531 80.964844 L 181.347656 81.078125 C 181.480469 81.152344 181.613281 81.234375 181.75 81.304688 L 182.164062 81.515625 C 182.300781 81.585938 182.445312 81.644531 182.585938 81.707031 C 182.867188 81.839844 183.15625 81.949219 183.445312 82.066406 C 183.589844 82.125 183.738281 82.171875 183.882812 82.226562 C 184.03125 82.277344 184.175781 82.332031 184.324219 82.378906 C 186.691406 83.152344 189.167969 83.585938 191.640625 83.960938 C 194.121094 84.335938 196.613281 84.632812 199.09375 85.003906 C 201.578125 85.378906 204.058594 85.820312 206.476562 86.53125 C 207.683594 86.886719 208.875 87.3125 210.011719 87.863281 L 210.4375 88.070312 L 210.855469 88.296875 L 211.0625 88.410156 C 211.132812 88.449219 211.195312 88.492188 211.265625 88.53125 L 211.671875 88.777344 C 212.199219 89.125 212.71875 89.488281 213.1875 89.914062 C 214.148438 90.742188 214.9375 91.761719 215.519531 92.890625 C 216.089844 94.019531 216.425781 95.265625 216.574219 96.515625 C 216.585938 96.59375 216.597656 96.671875 216.605469 96.75 L 216.621094 96.988281 L 216.65625 97.460938 C 216.671875 97.617188 216.664062 97.777344 216.667969 97.933594 L 216.671875 98.40625 C 216.675781 98.484375 216.671875 98.566406 216.667969 98.644531 L 216.65625 98.878906 L 216.636719 99.351562 C 216.621094 99.667969 216.578125 99.984375 216.523438 100.292969 C 216.414062 100.917969 216.242188 101.527344 216.027344 102.121094 C 215.808594 102.714844 215.558594 103.292969 215.257812 103.847656 C 214.960938 104.40625 214.640625 104.949219 214.28125 105.464844 C 214.105469 105.726562 213.914062 105.976562 213.726562 106.230469 C 213.632812 106.355469 213.53125 106.476562 213.429688 106.597656 C 213.332031 106.71875 213.234375 106.84375 213.132812 106.964844 C 212.3125 107.917969 211.402344 108.796875 210.429688 109.589844 C 208.476562 111.179688 206.269531 112.429688 203.964844 113.421875 C 202.8125 113.917969 201.625 114.335938 200.429688 114.707031 L 199.527344 114.976562 C 199.226562 115.058594 198.921875 115.136719 198.617188 115.214844 L 198.164062 115.335938 L 197.703125 115.441406 L 196.785156 115.648438 L 197.703125 115.433594 L 198.160156 115.328125 L 198.617188 115.207031 C 198.917969 115.125 199.222656 115.046875 199.523438 114.960938 L 200.421875 114.6875 C 201.617188 114.308594 202.800781 113.886719 203.949219 113.386719 C 206.246094 112.382812 208.441406 111.121094 210.375 109.523438 C 211.34375 108.730469 212.242188 107.851562 213.054688 106.898438 C 213.15625 106.78125 213.25 106.65625 213.351562 106.535156 C 213.445312 106.410156 213.550781 106.292969 213.640625 106.164062 C 213.824219 105.914062 214.015625 105.664062 214.1875 105.402344 C 214.542969 104.886719 214.859375 104.347656 215.152344 103.792969 C 215.445312 103.242188 215.6875 102.664062 215.902344 102.078125 C 216.113281 101.488281 216.28125 100.886719 216.382812 100.269531 C 216.496094 99.65625 216.503906 99.03125 216.519531 98.40625 L 216.511719 97.9375 C 216.507812 97.78125 216.515625 97.625 216.5 97.46875 L 216.464844 97 L 216.445312 96.769531 C 216.4375 96.691406 216.425781 96.613281 216.414062 96.535156 C 216.257812 95.300781 215.925781 94.082031 215.355469 92.972656 C 214.78125 91.871094 214 90.875 213.054688 90.070312 C 212.589844 89.652344 212.078125 89.296875 211.558594 88.957031 L 211.15625 88.71875 C 211.089844 88.675781 211.023438 88.636719 210.953125 88.597656 L 210.75 88.488281 L 210.335938 88.265625 L 209.917969 88.0625 C 208.789062 87.527344 207.609375 87.109375 206.410156 86.765625 C 204.003906 86.074219 201.53125 85.644531 199.054688 85.285156 C 196.574219 84.925781 194.082031 84.644531 191.59375 84.285156 C 189.113281 83.921875 186.621094 83.5 184.210938 82.726562 C 184.058594 82.679688 183.910156 82.625 183.761719 82.574219 C 183.613281 82.519531 183.460938 82.472656 183.3125 82.414062 C 183.019531 82.296875 182.722656 82.1875 182.433594 82.050781 C 182.289062 81.988281 182.140625 81.929688 182 81.855469 L 181.574219 81.640625 C 181.429688 81.570312 181.292969 81.488281 181.15625 81.410156 L 180.949219 81.292969 C 180.878906 81.253906 180.8125 81.207031 180.746094 81.164062 C 180.199219 80.832031 179.695312 80.433594 179.230469 79.988281 L 179.058594 79.820312 C 179 79.761719 178.941406 79.707031 178.890625 79.644531 L 178.578125 79.277344 C 178.476562 79.152344 178.386719 79.015625 178.289062 78.886719 C 178.191406 78.757812 178.113281 78.617188 178.03125 78.476562 C 177.855469 78.203125 177.726562 77.90625 177.589844 77.613281 L 177.417969 77.160156 L 177.378906 77.046875 L 177.34375 76.929688 L 177.277344 76.699219 C 177.089844 76.089844 176.96875 75.457031 176.894531 74.820312 L 176.851562 74.339844 C 176.84375 74.179688 176.84375 74.019531 176.839844 73.859375 C 176.832031 73.699219 176.847656 73.535156 176.855469 73.375 L 176.867188 73.132812 C 176.871094 73.050781 176.886719 72.972656 176.898438 72.890625 L 176.929688 72.652344 C 176.941406 72.574219 176.949219 72.492188 176.96875 72.414062 L 177.070312 71.9375 C 177.113281 71.78125 177.160156 71.628906 177.207031 71.472656 C 177.226562 71.394531 177.257812 71.320312 177.285156 71.242188 L 177.375 71.015625 C 177.617188 70.414062 177.941406 69.847656 178.324219 69.328125 C 178.707031 68.808594 179.160156 68.347656 179.644531 67.921875 C 179.882812 67.707031 180.140625 67.519531 180.394531 67.320312 L 180.789062 67.050781 C 180.855469 67.003906 180.921875 66.960938 180.992188 66.917969 L 181.398438 66.667969 C 181.464844 66.625 181.535156 66.589844 181.605469 66.546875 C 181.746094 66.472656 181.882812 66.390625 182.023438 66.316406 C 182.308594 66.175781 182.59375 66.027344 182.882812 65.898438 C 183.171875 65.761719 183.46875 65.648438 183.761719 65.527344 C 183.90625 65.46875 184.058594 65.414062 184.207031 65.359375 C 184.355469 65.300781 184.503906 65.246094 184.652344 65.199219 L 185.105469 65.046875 L 185.558594 64.910156 C 185.863281 64.8125 186.167969 64.738281 186.476562 64.652344 C 187.703125 64.339844 188.949219 64.109375 190.199219 63.941406 C 192.707031 63.613281 195.238281 63.527344 197.757812 63.644531 C 200.277344 63.757812 202.792969 64.066406 205.261719 64.621094 C 206.496094 64.898438 207.71875 65.238281 208.914062 65.671875 C 210.0625 66.085938 211.191406 66.589844 212.25 67.238281 C 212.316406 67.28125 212.335938 67.367188 212.292969 67.433594 L 212.09375 67.746094 " fill-rule="nonzero"></path><path transform="matrix(0.470371,0,0,0.470371,203.948398,141.65604)" stroke="none" fill="#000000" data-view-type="laser" d="M 28.46875 -12.703125 C 28.507812 -12.535156 28.492188 -12.375 28.421875 -12.21875 C 28.347656 -12.070312 28.238281 -11.96875 28.09375 -11.90625 C 27.113281 -11.613281 25.945312 -11.257812 24.59375 -10.84375 C 23.25 -10.425781 21.769531 -9.972656 20.15625 -9.484375 C 19.945312 -8.316406 19.726562 -7.160156 19.5 -6.015625 C 19.28125 -4.867188 19.078125 -3.753906 18.890625 -2.671875 C 18.378906 -0.015625 17.929688 2.304688 17.546875 4.296875 C 17.160156 6.296875 16.875 7.738281 16.6875 8.625 C 16.625 8.945312 16.421875 9.109375 16.078125 9.109375 C 16.035156 9.109375 15.992188 9.109375 15.953125 9.109375 C 15.804688 9.066406 15.679688 8.972656 15.578125 8.828125 C 15.484375 8.691406 15.460938 8.539062 15.515625 8.375 C 15.617188 7.78125 15.78125 6.925781 16 5.8125 C 16.21875 4.695312 16.472656 3.390625 16.765625 1.890625 C 17.054688 0.398438 17.359375 -1.191406 17.671875 -2.890625 C 17.859375 -3.867188 18.046875 -4.878906 18.234375 -5.921875 C 18.429688 -6.960938 18.632812 -8.023438 18.84375 -9.109375 C 18.820312 -9.085938 18.804688 -9.078125 18.796875 -9.078125 C 18.785156 -9.078125 18.769531 -9.078125 18.75 -9.078125 C 16.738281 -8.460938 14.59375 -7.804688 12.3125 -7.109375 C 10.03125 -6.421875 7.773438 -5.726562 5.546875 -5.03125 C 4.773438 -1.375 4.132812 1.753906 3.625 4.359375 C 3.113281 6.972656 2.691406 9.15625 2.359375 10.90625 C 2.035156 12.65625 1.785156 14.0625 1.609375 15.125 C 1.429688 16.1875 1.296875 16.992188 1.203125 17.546875 C 1.566406 17.691406 1.6875 17.945312 1.5625 18.3125 C 1.457031 18.644531 1.332031 18.941406 1.1875 19.203125 C 1.050781 19.472656 0.859375 19.609375 0.609375 19.609375 C 0.546875 19.609375 0.46875 19.597656 0.375 19.578125 C 0.0625 19.492188 -0.0976562 19.269531 -0.109375 18.90625 C -0.117188 18.550781 -0.0703125 18.023438 0.03125 17.328125 C 0.15625 16.347656 0.378906 14.957031 0.703125 13.15625 C 1.273438 10.03125 2.125 5.675781 3.25 0.09375 C 3.394531 -0.664062 3.546875 -1.441406 3.703125 -2.234375 C 3.867188 -3.035156 4.035156 -3.832031 4.203125 -4.625 C 3.328125 -4.34375 2.472656 -4.066406 1.640625 -3.796875 C 0.816406 -3.535156 0.015625 -3.269531 -0.765625 -3 C -3.203125 -2.1875 -5.140625 -1.507812 -6.578125 -0.96875 C -8.023438 -0.425781 -9.109375 0.00390625 -9.828125 0.328125 C -10.554688 0.660156 -11.0625 0.921875 -11.34375 1.109375 C -11.125 1.265625 -11.035156 1.46875 -11.078125 1.71875 C -11.140625 2.0625 -11.34375 2.234375 -11.6875 2.234375 C -11.726562 2.234375 -11.769531 2.222656 -11.8125 2.203125 C -12.238281 2.109375 -12.519531 1.972656 -12.65625 1.796875 C -12.789062 1.617188 -12.867188 1.445312 -12.890625 1.28125 C -12.890625 1.0625 -12.8125 0.84375 -12.65625 0.625 C -12.5 0.414062 -12.175781 0.171875 -11.6875 -0.109375 C -11.195312 -0.398438 -10.472656 -0.742188 -9.515625 -1.140625 C -7.734375 -1.890625 -5.175781 -2.828125 -1.84375 -3.953125 C -0.84375 -4.265625 0.175781 -4.585938 1.21875 -4.921875 C 2.269531 -5.265625 3.347656 -5.617188 4.453125 -5.984375 C 4.859375 -7.941406 5.25 -9.84375 5.625 -11.6875 C 6.007812 -13.53125 6.375 -15.253906 6.71875 -16.859375 C 7.0625 -18.460938 7.359375 -19.875 7.609375 -21.09375 C 7.867188 -22.3125 8.070312 -23.273438 8.21875 -23.984375 L 8.375 -24.609375 C 8.5625 -25.523438 8.648438 -26.203125 8.640625 -26.640625 C 8.628906 -27.078125 8.59375 -27.363281 8.53125 -27.5 C 8.46875 -27.632812 8.4375 -27.703125 8.4375 -27.703125 C 8.394531 -27.722656 8.25 -27.695312 8 -27.625 C 7.757812 -27.550781 7.382812 -27.289062 6.875 -26.84375 C 6.132812 -26.207031 5.351562 -25.347656 4.53125 -24.265625 C 3.71875 -23.179688 2.992188 -22.054688 2.359375 -20.890625 C 1.679688 -19.617188 1.207031 -18.476562 0.9375 -17.46875 C 0.675781 -16.457031 0.648438 -15.6875 0.859375 -15.15625 C 0.898438 -15.050781 1.03125 -14.882812 1.25 -14.65625 C 1.476562 -14.4375 1.953125 -14.347656 2.671875 -14.390625 C 2.835938 -14.410156 2.984375 -14.363281 3.109375 -14.25 C 3.242188 -14.132812 3.320312 -13.988281 3.34375 -13.8125 C 3.34375 -13.644531 3.289062 -13.5 3.1875 -13.375 C 3.082031 -13.25 2.941406 -13.1875 2.765625 -13.1875 C 1.796875 -13.125 1.085938 -13.265625 0.640625 -13.609375 C 0.191406 -13.960938 -0.113281 -14.332031 -0.28125 -14.71875 C -0.539062 -15.351562 -0.582031 -16.125 -0.40625 -17.03125 C -0.238281 -17.945312 0.0664062 -18.921875 0.515625 -19.953125 C 0.972656 -20.984375 1.519531 -21.992188 2.15625 -22.984375 C 2.800781 -23.984375 3.46875 -24.898438 4.15625 -25.734375 C 4.84375 -26.578125 5.472656 -27.253906 6.046875 -27.765625 C 7.316406 -28.867188 8.316406 -29.195312 9.046875 -28.75 C 9.910156 -28.238281 10.078125 -26.785156 9.546875 -24.390625 L 9.421875 -23.71875 C 8.703125 -20.320312 8.046875 -17.1875 7.453125 -14.3125 C 6.859375 -11.4375 6.304688 -8.800781 5.796875 -6.40625 C 7.941406 -7.0625 10.097656 -7.71875 12.265625 -8.375 C 14.429688 -9.03125 16.476562 -9.65625 18.40625 -10.25 C 18.507812 -10.269531 18.617188 -10.300781 18.734375 -10.34375 C 18.859375 -10.382812 18.984375 -10.414062 19.109375 -10.4375 C 19.515625 -12.601562 19.921875 -14.753906 20.328125 -16.890625 C 20.742188 -19.023438 21.140625 -21.046875 21.515625 -22.953125 C 21.898438 -24.867188 22.257812 -26.566406 22.59375 -28.046875 C 22.925781 -29.535156 23.195312 -30.71875 23.40625 -31.59375 C 23.445312 -31.757812 23.539062 -31.882812 23.6875 -31.96875 C 23.84375 -32.050781 23.992188 -32.070312 24.140625 -32.03125 C 24.304688 -31.988281 24.429688 -31.894531 24.515625 -31.75 C 24.597656 -31.601562 24.617188 -31.453125 24.578125 -31.296875 C 24.367188 -30.453125 24.109375 -29.3125 23.796875 -27.875 C 23.492188 -26.445312 23.15625 -24.8125 22.78125 -22.96875 C 22.414062 -21.132812 22.03125 -19.179688 21.625 -17.109375 C 21.21875 -15.046875 20.8125 -12.960938 20.40625 -10.859375 C 21.894531 -11.304688 23.257812 -11.710938 24.5 -12.078125 C 25.738281 -12.453125 26.804688 -12.789062 27.703125 -13.09375 C 27.847656 -13.132812 28 -13.113281 28.15625 -13.03125 C 28.320312 -12.957031 28.425781 -12.847656 28.46875 -12.703125 Z M 28.46875 -12.703125 " fill-rule="nonzero"></path><path transform="matrix(0.470371,0,0,0.470371,216.693565,141.65604)" stroke="none" fill="#000000" data-view-type="laser" d="M 13.34375 -7.0625 C 13.488281 -7 13.585938 -6.890625 13.640625 -6.734375 C 13.691406 -6.578125 13.6875 -6.421875 13.625 -6.265625 C 13.226562 -5.441406 12.789062 -4.613281 12.3125 -3.78125 C 11.832031 -2.957031 11.332031 -2.203125 10.8125 -1.515625 C 10.289062 -0.828125 9.753906 -0.273438 9.203125 0.140625 C 8.648438 0.554688 8.097656 0.765625 7.546875 0.765625 C 7.441406 0.765625 7.328125 0.753906 7.203125 0.734375 C 5.773438 0.453125 4.890625 -1.457031 4.546875 -5 C 4.191406 -4.507812 3.773438 -3.960938 3.296875 -3.359375 C 2.816406 -2.753906 2.3125 -2.15625 1.78125 -1.5625 C 1.695312 -1.476562 1.554688 -1.34375 1.359375 -1.15625 C 1.171875 -0.976562 0.945312 -0.835938 0.6875 -0.734375 C 0.4375 -0.628906 0.1875 -0.640625 -0.0625 -0.765625 C -0.570312 -0.953125 -0.816406 -1.503906 -0.796875 -2.421875 C -0.796875 -2.953125 -0.691406 -3.609375 -0.484375 -4.390625 C -0.285156 -5.179688 -0.00390625 -5.972656 0.359375 -6.765625 C 0.734375 -7.554688 1.171875 -8.257812 1.671875 -8.875 C 2.171875 -9.5 2.726562 -9.914062 3.34375 -10.125 C 3.726562 -10.269531 4.195312 -10.296875 4.75 -10.203125 C 5.300781 -10.109375 5.875 -9.710938 6.46875 -9.015625 C 6.570312 -8.890625 6.617188 -8.738281 6.609375 -8.5625 C 6.597656 -8.394531 6.53125 -8.257812 6.40625 -8.15625 C 6.269531 -8.050781 6.117188 -8.003906 5.953125 -8.015625 C 5.785156 -8.023438 5.648438 -8.09375 5.546875 -8.21875 C 5.035156 -8.8125 4.59375 -9.09375 4.21875 -9.0625 C 3.84375 -9.03125 3.53125 -8.914062 3.28125 -8.71875 C 2.8125 -8.382812 2.382812 -7.898438 2 -7.265625 C 1.625 -6.628906 1.304688 -5.957031 1.046875 -5.25 C 0.796875 -4.550781 0.613281 -3.898438 0.5 -3.296875 C 0.394531 -2.691406 0.363281 -2.25 0.40625 -1.96875 C 0.476562 -2.007812 0.550781 -2.0625 0.625 -2.125 C 0.695312 -2.195312 0.773438 -2.285156 0.859375 -2.390625 C 1.492188 -3.085938 2.078125 -3.78125 2.609375 -4.46875 C 3.140625 -5.164062 3.597656 -5.78125 3.984375 -6.3125 C 4.085938 -6.457031 4.1875 -6.597656 4.28125 -6.734375 C 4.375 -6.867188 4.460938 -6.988281 4.546875 -7.09375 C 4.722656 -7.3125 4.945312 -7.378906 5.21875 -7.296875 C 5.5 -7.234375 5.648438 -7.050781 5.671875 -6.75 C 5.734375 -5.375 5.84375 -4.265625 6 -3.421875 C 6.15625 -2.585938 6.328125 -1.960938 6.515625 -1.546875 C 6.710938 -1.128906 6.894531 -0.847656 7.0625 -0.703125 C 7.238281 -0.554688 7.367188 -0.484375 7.453125 -0.484375 C 7.859375 -0.390625 8.503906 -0.800781 9.390625 -1.71875 C 10.285156 -2.632812 11.328125 -4.320312 12.515625 -6.78125 C 12.597656 -6.945312 12.71875 -7.054688 12.875 -7.109375 C 13.039062 -7.171875 13.195312 -7.15625 13.34375 -7.0625 Z M 13.34375 -7.0625 " fill-rule="nonzero"></path><path transform="matrix(0.470371,0,0,0.470371,222.444318,141.65604)" stroke="none" fill="#000000" data-view-type="laser" d="M 12.828125 -7.09375 C 12.984375 -7.007812 13.082031 -6.890625 13.125 -6.734375 C 13.164062 -6.578125 13.144531 -6.421875 13.0625 -6.265625 C 12.0625 -4.503906 11.160156 -3.148438 10.359375 -2.203125 C 9.566406 -1.265625 8.753906 -0.847656 7.921875 -0.953125 C 6.867188 -1.078125 6.03125 -2.222656 5.40625 -4.390625 C 5.195312 -5.085938 5.015625 -5.59375 4.859375 -5.90625 C 4.703125 -6.21875 4.570312 -6.410156 4.46875 -6.484375 C 4.375 -6.554688 4.304688 -6.59375 4.265625 -6.59375 C 4.203125 -6.613281 4.070312 -6.546875 3.875 -6.390625 C 3.6875 -6.242188 3.410156 -5.914062 3.046875 -5.40625 C 2.691406 -4.90625 2.25 -4.117188 1.71875 -3.046875 C 1.1875 -1.972656 0.539062 -0.5 -0.21875 1.375 C -0.320312 1.625 -0.503906 1.75 -0.765625 1.75 C -0.828125 1.75 -0.878906 1.738281 -0.921875 1.71875 C -1.285156 1.632812 -1.445312 1.410156 -1.40625 1.046875 C -1.289062 0.179688 -1.09375 -0.820312 -0.8125 -1.96875 C -0.539062 -3.113281 -0.242188 -4.28125 0.078125 -5.46875 C 0.410156 -6.664062 0.710938 -7.726562 0.984375 -8.65625 C 1.046875 -8.875 1.101562 -9.070312 1.15625 -9.25 C 1.207031 -9.425781 1.257812 -9.601562 1.3125 -9.78125 C 1.375 -9.945312 1.476562 -10.066406 1.625 -10.140625 C 1.769531 -10.210938 1.914062 -10.226562 2.0625 -10.1875 C 2.238281 -10.144531 2.367188 -10.050781 2.453125 -9.90625 C 2.535156 -9.757812 2.546875 -9.597656 2.484375 -9.421875 C 2.441406 -9.253906 2.394531 -9.078125 2.34375 -8.890625 C 2.289062 -8.710938 2.234375 -8.519531 2.171875 -8.3125 C 2.015625 -7.757812 1.84375 -7.15625 1.65625 -6.5 C 1.46875 -5.84375 1.273438 -5.171875 1.078125 -4.484375 C 1.804688 -5.847656 2.421875 -6.75 2.921875 -7.1875 C 3.429688 -7.632812 3.898438 -7.847656 4.328125 -7.828125 C 4.921875 -7.785156 5.382812 -7.457031 5.71875 -6.84375 C 6.0625 -6.226562 6.351562 -5.519531 6.59375 -4.71875 C 6.90625 -3.613281 7.195312 -2.910156 7.46875 -2.609375 C 7.75 -2.316406 7.957031 -2.171875 8.09375 -2.171875 C 8.363281 -2.128906 8.679688 -2.28125 9.046875 -2.625 C 9.421875 -2.976562 9.796875 -3.425781 10.171875 -3.96875 C 10.546875 -4.507812 10.894531 -5.046875 11.21875 -5.578125 C 11.550781 -6.109375 11.800781 -6.539062 11.96875 -6.875 C 12.050781 -7.019531 12.175781 -7.113281 12.34375 -7.15625 C 12.519531 -7.207031 12.679688 -7.1875 12.828125 -7.09375 Z M 12.828125 -7.09375 " fill-rule="nonzero"></path><path transform="matrix(0.470371,0,0,0.470371,227.791023,141.65604)" stroke="none" fill="#000000" data-view-type="laser" d="M 13.59375 -26.59375 C 13.65625 -26.550781 13.71875 -26.445312 13.78125 -26.28125 C 13.851562 -26.125 13.890625 -25.847656 13.890625 -25.453125 C 13.890625 -25.066406 13.800781 -24.492188 13.625 -23.734375 C 13.457031 -22.984375 13.171875 -21.984375 12.765625 -20.734375 C 12.703125 -20.554688 12.644531 -20.378906 12.59375 -20.203125 C 12.539062 -20.023438 12.484375 -19.847656 12.421875 -19.671875 C 11.929688 -18.148438 11.332031 -16.4375 10.625 -14.53125 C 9.925781 -12.632812 8.984375 -10.5625 7.796875 -8.3125 C 7.523438 -6.925781 7.238281 -5.453125 6.9375 -3.890625 C 6.644531 -2.335938 6.347656 -0.691406 6.046875 1.046875 C 5.671875 3.398438 5.367188 5.34375 5.140625 6.875 C 4.921875 8.40625 4.765625 9.617188 4.671875 10.515625 C 4.585938 11.421875 4.535156 12.109375 4.515625 12.578125 C 4.691406 12.515625 4.863281 12.515625 5.03125 12.578125 C 5.175781 12.660156 5.273438 12.78125 5.328125 12.9375 C 5.378906 13.101562 5.375 13.257812 5.3125 13.40625 C 5.207031 13.632812 5.054688 13.890625 4.859375 14.171875 C 4.671875 14.460938 4.441406 14.609375 4.171875 14.609375 C 4.085938 14.609375 4.003906 14.597656 3.921875 14.578125 C 3.703125 14.515625 3.539062 14.359375 3.4375 14.109375 C 3.332031 13.867188 3.285156 13.40625 3.296875 12.71875 C 3.304688 12.03125 3.394531 10.984375 3.5625 9.578125 C 3.820312 7.367188 4.25 4.460938 4.84375 0.859375 C 5.175781 -1.117188 5.523438 -3.039062 5.890625 -4.90625 C 5.566406 -4.394531 5.226562 -3.875 4.875 -3.34375 C 4.53125 -2.8125 4.171875 -2.269531 3.796875 -1.71875 C 3.210938 -0.875 2.6875 -0.273438 2.21875 0.078125 C 1.757812 0.429688 1.351562 0.617188 1 0.640625 C 0.65625 0.660156 0.363281 0.609375 0.125 0.484375 C -0.34375 0.203125 -0.640625 -0.285156 -0.765625 -0.984375 C -0.890625 -1.679688 -0.875 -2.472656 -0.71875 -3.359375 C -0.5625 -4.242188 -0.300781 -5.085938 0.0625 -5.890625 C 0.800781 -7.460938 1.65625 -8.570312 2.625 -9.21875 C 3.59375 -9.863281 4.414062 -10.09375 5.09375 -9.90625 C 5.238281 -9.84375 5.46875 -9.695312 5.78125 -9.46875 C 6.101562 -9.25 6.300781 -8.832031 6.375 -8.21875 C 6.476562 -8.382812 6.570312 -8.550781 6.65625 -8.71875 C 7.4375 -12.375 8.207031 -15.519531 8.96875 -18.15625 C 9.738281 -20.800781 10.457031 -22.863281 11.125 -24.34375 C 11.789062 -25.820312 12.359375 -26.632812 12.828125 -26.78125 C 13.128906 -26.882812 13.382812 -26.820312 13.59375 -26.59375 Z M 2.796875 -2.421875 C 3.304688 -3.160156 3.789062 -3.890625 4.25 -4.609375 C 4.707031 -5.335938 5.140625 -6.050781 5.546875 -6.75 C 5.222656 -6.851562 5.09375 -7.066406 5.15625 -7.390625 C 5.15625 -7.535156 5.148438 -7.769531 5.140625 -8.09375 C 5.128906 -8.425781 5 -8.632812 4.75 -8.71875 C 4.707031 -8.738281 4.640625 -8.75 4.546875 -8.75 C 4.148438 -8.75 3.625 -8.472656 2.96875 -7.921875 C 2.320312 -7.367188 1.722656 -6.507812 1.171875 -5.34375 C 0.816406 -4.582031 0.582031 -3.859375 0.46875 -3.171875 C 0.363281 -2.484375 0.34375 -1.90625 0.40625 -1.4375 C 0.476562 -0.96875 0.597656 -0.691406 0.765625 -0.609375 C 0.828125 -0.566406 1.023438 -0.640625 1.359375 -0.828125 C 1.703125 -1.015625 2.179688 -1.546875 2.796875 -2.421875 Z M 11.59375 -21.109375 C 11.84375 -21.859375 12.035156 -22.5 12.171875 -23.03125 C 12.316406 -23.570312 12.429688 -24.035156 12.515625 -24.421875 C 12.109375 -23.597656 11.617188 -22.347656 11.046875 -20.671875 C 10.472656 -18.992188 9.847656 -16.835938 9.171875 -14.203125 C 9.617188 -15.285156 10.003906 -16.3125 10.328125 -17.28125 C 10.660156 -18.257812 10.960938 -19.175781 11.234375 -20.03125 C 11.304688 -20.21875 11.367188 -20.398438 11.421875 -20.578125 C 11.472656 -20.765625 11.53125 -20.941406 11.59375 -21.109375 Z M 11.59375 -21.109375 " fill-rule="nonzero"></path><path transform="matrix(0.470371,0,0,0.470371,232.478739,141.65604)" stroke="none" fill="#000000" data-view-type="laser" d="M 17.953125 -7.140625 C 18.085938 -7.023438 18.160156 -6.882812 18.171875 -6.71875 C 18.179688 -6.550781 18.132812 -6.398438 18.03125 -6.265625 C 15.332031 -3.109375 13.195312 -1.828125 11.625 -2.421875 C 10.5 -2.847656 9.894531 -4.195312 9.8125 -6.46875 C 9.570312 -6.039062 9.316406 -5.554688 9.046875 -5.015625 C 8.785156 -4.472656 8.570312 -4.03125 8.40625 -3.6875 C 8.28125 -3.375 8.148438 -3.085938 8.015625 -2.828125 C 7.890625 -2.578125 7.773438 -2.367188 7.671875 -2.203125 C 7.609375 -2.066406 7.492188 -1.878906 7.328125 -1.640625 C 7.171875 -1.398438 6.972656 -1.1875 6.734375 -1 C 6.492188 -0.820312 6.210938 -0.773438 5.890625 -0.859375 C 5.503906 -0.960938 5.21875 -1.242188 5.03125 -1.703125 C 4.84375 -2.160156 4.726562 -2.660156 4.6875 -3.203125 C 4.644531 -3.742188 4.625 -4.179688 4.625 -4.515625 C 4.625 -4.796875 4.625 -5.0625 4.625 -5.3125 C 4.625 -5.570312 4.632812 -5.804688 4.65625 -6.015625 C 3.90625 -4.953125 3.191406 -3.851562 2.515625 -2.71875 C 1.835938 -1.582031 1.113281 -0.285156 0.34375 1.171875 C 0.09375 1.660156 -0.179688 1.90625 -0.484375 1.90625 C -0.585938 1.90625 -0.679688 1.875 -0.765625 1.8125 C -0.867188 1.769531 -0.960938 1.703125 -1.046875 1.609375 C -1.128906 1.515625 -1.175781 1.320312 -1.1875 1.03125 C -1.195312 0.75 -1.15625 0.3125 -1.0625 -0.28125 C -0.96875 -0.875 -0.785156 -1.703125 -0.515625 -2.765625 C -0.191406 -4.066406 0.1875 -5.351562 0.625 -6.625 C 1.0625 -7.894531 1.5 -9.039062 1.9375 -10.0625 C 2 -10.226562 2.109375 -10.34375 2.265625 -10.40625 C 2.429688 -10.476562 2.585938 -10.46875 2.734375 -10.375 C 2.910156 -10.3125 3.023438 -10.203125 3.078125 -10.046875 C 3.128906 -9.890625 3.125 -9.734375 3.0625 -9.578125 C 2.488281 -8.242188 1.972656 -6.847656 1.515625 -5.390625 C 1.054688 -3.941406 0.703125 -2.675781 0.453125 -1.59375 C 1.109375 -2.757812 1.753906 -3.847656 2.390625 -4.859375 C 3.023438 -5.867188 3.691406 -6.847656 4.390625 -7.796875 C 4.453125 -7.878906 4.5625 -7.992188 4.71875 -8.140625 C 4.882812 -8.296875 5.101562 -8.332031 5.375 -8.25 C 5.65625 -8.144531 5.8125 -7.941406 5.84375 -7.640625 C 5.875 -7.347656 5.878906 -6.847656 5.859375 -6.140625 C 5.859375 -5.910156 5.851562 -5.65625 5.84375 -5.375 C 5.832031 -5.101562 5.828125 -4.816406 5.828125 -4.515625 C 5.828125 -3.878906 5.867188 -3.359375 5.953125 -2.953125 C 6.035156 -2.554688 6.109375 -2.285156 6.171875 -2.140625 C 6.210938 -2.179688 6.269531 -2.253906 6.34375 -2.359375 C 6.425781 -2.460938 6.519531 -2.597656 6.625 -2.765625 C 6.707031 -2.921875 6.804688 -3.125 6.921875 -3.375 C 7.035156 -3.625 7.171875 -3.898438 7.328125 -4.203125 C 7.878906 -5.390625 8.328125 -6.300781 8.671875 -6.9375 C 9.023438 -7.570312 9.328125 -8.003906 9.578125 -8.234375 C 9.835938 -8.472656 10.101562 -8.5625 10.375 -8.5 C 10.71875 -8.414062 10.914062 -8.207031 10.96875 -7.875 C 11.019531 -7.550781 11.046875 -7.289062 11.046875 -7.09375 C 11.023438 -6.101562 11.101562 -5.296875 11.28125 -4.671875 C 11.46875 -4.054688 11.726562 -3.6875 12.0625 -3.5625 C 12.445312 -3.414062 13.054688 -3.585938 13.890625 -4.078125 C 14.734375 -4.566406 15.800781 -5.5625 17.09375 -7.0625 C 17.207031 -7.195312 17.347656 -7.269531 17.515625 -7.28125 C 17.679688 -7.289062 17.828125 -7.242188 17.953125 -7.140625 Z M 17.953125 -7.140625 " fill-rule="nonzero"></path><path transform="matrix(0.470371,0,0,0.470371,240.281249,141.65604)" stroke="none" fill="#000000" data-view-type="laser" d="M 13.34375 -7.0625 C 13.488281 -7 13.585938 -6.890625 13.640625 -6.734375 C 13.691406 -6.578125 13.6875 -6.421875 13.625 -6.265625 C 13.226562 -5.441406 12.789062 -4.613281 12.3125 -3.78125 C 11.832031 -2.957031 11.332031 -2.203125 10.8125 -1.515625 C 10.289062 -0.828125 9.753906 -0.273438 9.203125 0.140625 C 8.648438 0.554688 8.097656 0.765625 7.546875 0.765625 C 7.441406 0.765625 7.328125 0.753906 7.203125 0.734375 C 5.773438 0.453125 4.890625 -1.457031 4.546875 -5 C 4.191406 -4.507812 3.773438 -3.960938 3.296875 -3.359375 C 2.816406 -2.753906 2.3125 -2.15625 1.78125 -1.5625 C 1.695312 -1.476562 1.554688 -1.34375 1.359375 -1.15625 C 1.171875 -0.976562 0.945312 -0.835938 0.6875 -0.734375 C 0.4375 -0.628906 0.1875 -0.640625 -0.0625 -0.765625 C -0.570312 -0.953125 -0.816406 -1.503906 -0.796875 -2.421875 C -0.796875 -2.953125 -0.691406 -3.609375 -0.484375 -4.390625 C -0.285156 -5.179688 -0.00390625 -5.972656 0.359375 -6.765625 C 0.734375 -7.554688 1.171875 -8.257812 1.671875 -8.875 C 2.171875 -9.5 2.726562 -9.914062 3.34375 -10.125 C 3.726562 -10.269531 4.195312 -10.296875 4.75 -10.203125 C 5.300781 -10.109375 5.875 -9.710938 6.46875 -9.015625 C 6.570312 -8.890625 6.617188 -8.738281 6.609375 -8.5625 C 6.597656 -8.394531 6.53125 -8.257812 6.40625 -8.15625 C 6.269531 -8.050781 6.117188 -8.003906 5.953125 -8.015625 C 5.785156 -8.023438 5.648438 -8.09375 5.546875 -8.21875 C 5.035156 -8.8125 4.59375 -9.09375 4.21875 -9.0625 C 3.84375 -9.03125 3.53125 -8.914062 3.28125 -8.71875 C 2.8125 -8.382812 2.382812 -7.898438 2 -7.265625 C 1.625 -6.628906 1.304688 -5.957031 1.046875 -5.25 C 0.796875 -4.550781 0.613281 -3.898438 0.5 -3.296875 C 0.394531 -2.691406 0.363281 -2.25 0.40625 -1.96875 C 0.476562 -2.007812 0.550781 -2.0625 0.625 -2.125 C 0.695312 -2.195312 0.773438 -2.285156 0.859375 -2.390625 C 1.492188 -3.085938 2.078125 -3.78125 2.609375 -4.46875 C 3.140625 -5.164062 3.597656 -5.78125 3.984375 -6.3125 C 4.085938 -6.457031 4.1875 -6.597656 4.28125 -6.734375 C 4.375 -6.867188 4.460938 -6.988281 4.546875 -7.09375 C 4.722656 -7.3125 4.945312 -7.378906 5.21875 -7.296875 C 5.5 -7.234375 5.648438 -7.050781 5.671875 -6.75 C 5.734375 -5.375 5.84375 -4.265625 6 -3.421875 C 6.15625 -2.585938 6.328125 -1.960938 6.515625 -1.546875 C 6.710938 -1.128906 6.894531 -0.847656 7.0625 -0.703125 C 7.238281 -0.554688 7.367188 -0.484375 7.453125 -0.484375 C 7.859375 -0.390625 8.503906 -0.800781 9.390625 -1.71875 C 10.285156 -2.632812 11.328125 -4.320312 12.515625 -6.78125 C 12.597656 -6.945312 12.71875 -7.054688 12.875 -7.109375 C 13.039062 -7.171875 13.195312 -7.15625 13.34375 -7.0625 Z M 13.34375 -7.0625 " fill-rule="nonzero"></path><path transform="matrix(0.470371,0,0,0.470371,245.942632,141.65604)" stroke="none" fill="#000000" data-view-type="laser" d="M 13.59375 -26.59375 C 13.65625 -26.550781 13.71875 -26.445312 13.78125 -26.28125 C 13.851562 -26.125 13.890625 -25.847656 13.890625 -25.453125 C 13.890625 -25.066406 13.800781 -24.492188 13.625 -23.734375 C 13.457031 -22.984375 13.171875 -21.984375 12.765625 -20.734375 C 12.703125 -20.554688 12.644531 -20.378906 12.59375 -20.203125 C 12.539062 -20.023438 12.484375 -19.847656 12.421875 -19.671875 C 11.929688 -18.148438 11.332031 -16.4375 10.625 -14.53125 C 9.925781 -12.632812 8.984375 -10.5625 7.796875 -8.3125 C 7.523438 -6.925781 7.238281 -5.453125 6.9375 -3.890625 C 6.644531 -2.335938 6.347656 -0.691406 6.046875 1.046875 C 5.671875 3.398438 5.367188 5.34375 5.140625 6.875 C 4.921875 8.40625 4.765625 9.617188 4.671875 10.515625 C 4.585938 11.421875 4.535156 12.109375 4.515625 12.578125 C 4.691406 12.515625 4.863281 12.515625 5.03125 12.578125 C 5.175781 12.660156 5.273438 12.78125 5.328125 12.9375 C 5.378906 13.101562 5.375 13.257812 5.3125 13.40625 C 5.207031 13.632812 5.054688 13.890625 4.859375 14.171875 C 4.671875 14.460938 4.441406 14.609375 4.171875 14.609375 C 4.085938 14.609375 4.003906 14.597656 3.921875 14.578125 C 3.703125 14.515625 3.539062 14.359375 3.4375 14.109375 C 3.332031 13.867188 3.285156 13.40625 3.296875 12.71875 C 3.304688 12.03125 3.394531 10.984375 3.5625 9.578125 C 3.820312 7.367188 4.25 4.460938 4.84375 0.859375 C 5.175781 -1.117188 5.523438 -3.039062 5.890625 -4.90625 C 5.566406 -4.394531 5.226562 -3.875 4.875 -3.34375 C 4.53125 -2.8125 4.171875 -2.269531 3.796875 -1.71875 C 3.210938 -0.875 2.6875 -0.273438 2.21875 0.078125 C 1.757812 0.429688 1.351562 0.617188 1 0.640625 C 0.65625 0.660156 0.363281 0.609375 0.125 0.484375 C -0.34375 0.203125 -0.640625 -0.285156 -0.765625 -0.984375 C -0.890625 -1.679688 -0.875 -2.472656 -0.71875 -3.359375 C -0.5625 -4.242188 -0.300781 -5.085938 0.0625 -5.890625 C 0.800781 -7.460938 1.65625 -8.570312 2.625 -9.21875 C 3.59375 -9.863281 4.414062 -10.09375 5.09375 -9.90625 C 5.238281 -9.84375 5.46875 -9.695312 5.78125 -9.46875 C 6.101562 -9.25 6.300781 -8.832031 6.375 -8.21875 C 6.476562 -8.382812 6.570312 -8.550781 6.65625 -8.71875 C 7.4375 -12.375 8.207031 -15.519531 8.96875 -18.15625 C 9.738281 -20.800781 10.457031 -22.863281 11.125 -24.34375 C 11.789062 -25.820312 12.359375 -26.632812 12.828125 -26.78125 C 13.128906 -26.882812 13.382812 -26.820312 13.59375 -26.59375 Z M 2.796875 -2.421875 C 3.304688 -3.160156 3.789062 -3.890625 4.25 -4.609375 C 4.707031 -5.335938 5.140625 -6.050781 5.546875 -6.75 C 5.222656 -6.851562 5.09375 -7.066406 5.15625 -7.390625 C 5.15625 -7.535156 5.148438 -7.769531 5.140625 -8.09375 C 5.128906 -8.425781 5 -8.632812 4.75 -8.71875 C 4.707031 -8.738281 4.640625 -8.75 4.546875 -8.75 C 4.148438 -8.75 3.625 -8.472656 2.96875 -7.921875 C 2.320312 -7.367188 1.722656 -6.507812 1.171875 -5.34375 C 0.816406 -4.582031 0.582031 -3.859375 0.46875 -3.171875 C 0.363281 -2.484375 0.34375 -1.90625 0.40625 -1.4375 C 0.476562 -0.96875 0.597656 -0.691406 0.765625 -0.609375 C 0.828125 -0.566406 1.023438 -0.640625 1.359375 -0.828125 C 1.703125 -1.015625 2.179688 -1.546875 2.796875 -2.421875 Z M 11.59375 -21.109375 C 11.84375 -21.859375 12.035156 -22.5 12.171875 -23.03125 C 12.316406 -23.570312 12.429688 -24.035156 12.515625 -24.421875 C 12.109375 -23.597656 11.617188 -22.347656 11.046875 -20.671875 C 10.472656 -18.992188 9.847656 -16.835938 9.171875 -14.203125 C 9.617188 -15.285156 10.003906 -16.3125 10.328125 -17.28125 C 10.660156 -18.257812 10.960938 -19.175781 11.234375 -20.03125 C 11.304688 -20.21875 11.367188 -20.398438 11.421875 -20.578125 C 11.472656 -20.765625 11.53125 -20.941406 11.59375 -21.109375 Z M 11.59375 -21.109375 " fill-rule="nonzero"></path><path transform="matrix(0.470371,0,0,0.470371,250.630348,141.65604)" stroke="none" fill="#000000" data-view-type="laser" d="M 10.765625 -7.09375 C 10.910156 -7.007812 10.992188 -6.882812 11.015625 -6.71875 C 11.035156 -6.550781 11.003906 -6.398438 10.921875 -6.265625 C 9.671875 -4.523438 8.523438 -3.085938 7.484375 -1.953125 C 6.441406 -0.816406 5.398438 0.117188 4.359375 0.859375 C 3.578125 1.410156 2.800781 1.6875 2.03125 1.6875 C 1.4375 1.6875 0.921875 1.523438 0.484375 1.203125 C 0.179688 0.992188 -0.109375 0.617188 -0.390625 0.078125 C -0.679688 -0.460938 -0.835938 -1.25 -0.859375 -2.28125 C -0.878906 -3.3125 -0.625 -4.664062 -0.09375 -6.34375 C -0.09375 -6.34375 -0.09375 -6.351562 -0.09375 -6.375 C 0.539062 -8.40625 1.285156 -9.957031 2.140625 -11.03125 C 3.003906 -12.101562 3.742188 -12.648438 4.359375 -12.671875 C 4.847656 -12.691406 5.164062 -12.476562 5.3125 -12.03125 C 5.550781 -11.414062 5.273438 -10.539062 4.484375 -9.40625 C 3.703125 -8.269531 2.546875 -7.066406 1.015625 -5.796875 C 0.546875 -4.304688 0.320312 -3.140625 0.34375 -2.296875 C 0.363281 -1.460938 0.476562 -0.859375 0.6875 -0.484375 C 0.90625 -0.117188 1.078125 0.113281 1.203125 0.21875 C 1.847656 0.6875 2.664062 0.5625 3.65625 -0.15625 C 4.632812 -0.832031 5.625 -1.71875 6.625 -2.8125 C 7.625 -3.90625 8.71875 -5.289062 9.90625 -6.96875 C 10.007812 -7.101562 10.144531 -7.1875 10.3125 -7.21875 C 10.488281 -7.25 10.640625 -7.207031 10.765625 -7.09375 Z M 4.140625 -11.34375 C 3.910156 -11.1875 3.59375 -10.867188 3.1875 -10.390625 C 2.78125 -9.921875 2.363281 -9.226562 1.9375 -8.3125 C 2.707031 -9.050781 3.25 -9.679688 3.5625 -10.203125 C 3.882812 -10.722656 4.078125 -11.101562 4.140625 -11.34375 Z M 4.140625 -11.34375 " fill-rule="nonzero"></path><path transform="matrix(0.470371,0,0,0.470371,259.586208,141.65604)" stroke="none" fill="#000000" data-view-type="laser" d="M 13.4375 -7.140625 C 13.582031 -7.046875 13.675781 -6.914062 13.71875 -6.75 C 13.757812 -6.582031 13.726562 -6.4375 13.625 -6.3125 C 12.738281 -4.84375 11.722656 -3.5625 10.578125 -2.46875 C 9.429688 -1.375 8.253906 -0.4375 7.046875 0.34375 C 5.847656 1.132812 4.695312 1.789062 3.59375 2.3125 C 2.488281 2.832031 1.523438 3.226562 0.703125 3.5 C 0.398438 3.601562 0.164062 3.519531 0 3.25 C -0.34375 4.09375 -0.640625 4.929688 -0.890625 5.765625 C -0.972656 6.035156 -1.175781 6.171875 -1.5 6.171875 C -1.519531 6.171875 -1.550781 6.171875 -1.59375 6.171875 C -1.9375 6.109375 -2.109375 5.910156 -2.109375 5.578125 C -2.109375 5.378906 -2.03125 4.910156 -1.875 4.171875 C -1.726562 3.429688 -1.53125 2.484375 -1.28125 1.328125 C -1.039062 0.171875 -0.757812 -1.113281 -0.4375 -2.53125 C -0.125 -3.945312 0.195312 -5.40625 0.53125 -6.90625 C 0.875 -8.414062 1.207031 -9.894531 1.53125 -11.34375 C 1.863281 -12.800781 2.179688 -14.144531 2.484375 -15.375 C 2.484375 -15.4375 2.492188 -15.503906 2.515625 -15.578125 C 2.878906 -17.097656 3.175781 -18.328125 3.40625 -19.265625 C 3.894531 -21.210938 4.4375 -22.988281 5.03125 -24.59375 C 5.625 -26.195312 6.210938 -27.488281 6.796875 -28.46875 C 7.378906 -29.445312 7.894531 -29.976562 8.34375 -30.0625 C 8.707031 -30.125 8.984375 -30.015625 9.171875 -29.734375 C 9.460938 -29.316406 9.429688 -28.4375 9.078125 -27.09375 C 8.734375 -25.757812 8.097656 -24.066406 7.171875 -22.015625 C 6.253906 -19.972656 5.09375 -17.675781 3.6875 -15.125 C 3.351562 -13.707031 2.992188 -12.171875 2.609375 -10.515625 C 2.222656 -8.859375 1.84375 -7.191406 1.46875 -5.515625 C 1.101562 -3.835938 0.765625 -2.273438 0.453125 -0.828125 C 1.046875 -2.054688 1.617188 -3.054688 2.171875 -3.828125 C 3.828125 -6.140625 5.140625 -7.144531 6.109375 -6.84375 C 6.304688 -6.78125 6.515625 -6.632812 6.734375 -6.40625 C 6.953125 -6.1875 7.070312 -5.769531 7.09375 -5.15625 C 7.125 -4.519531 6.96875 -3.710938 6.625 -2.734375 C 6.28125 -1.765625 5.757812 -0.800781 5.0625 0.15625 C 6.65625 -0.769531 8.097656 -1.835938 9.390625 -3.046875 C 10.691406 -4.265625 11.765625 -5.5625 12.609375 -6.9375 C 12.691406 -7.09375 12.8125 -7.1875 12.96875 -7.21875 C 13.132812 -7.25 13.289062 -7.222656 13.4375 -7.140625 Z M 8.125 -28.3125 C 7.757812 -27.757812 7.273438 -26.804688 6.671875 -25.453125 C 6.066406 -24.109375 5.46875 -22.289062 4.875 -20 C 5.9375 -22.144531 6.710938 -23.898438 7.203125 -25.265625 C 7.703125 -26.640625 8.007812 -27.65625 8.125 -28.3125 Z M 0.34375 2.328125 C 1.425781 1.921875 2.347656 1.320312 3.109375 0.53125 C 3.878906 -0.25 4.484375 -1.070312 4.921875 -1.9375 C 5.359375 -2.8125 5.640625 -3.578125 5.765625 -4.234375 C 5.867188 -4.703125 5.898438 -5.046875 5.859375 -5.265625 C 5.816406 -5.492188 5.785156 -5.628906 5.765625 -5.671875 C 5.722656 -5.671875 5.601562 -5.617188 5.40625 -5.515625 C 5.21875 -5.421875 4.941406 -5.195312 4.578125 -4.84375 C 4.222656 -4.5 3.757812 -3.925781 3.1875 -3.125 C 2.738281 -2.488281 2.265625 -1.695312 1.765625 -0.75 C 1.265625 0.195312 0.789062 1.222656 0.34375 2.328125 Z M 0.34375 2.328125 " fill-rule="nonzero"></path><path transform="matrix(0.470371,0,0,0.470371,265.217487,141.65604)" stroke="none" fill="#000000" data-view-type="laser" d="M 15.578125 -7 C 15.679688 -6.875 15.710938 -6.726562 15.671875 -6.5625 C 15.628906 -6.394531 15.539062 -6.265625 15.40625 -6.171875 C 13.863281 -5.160156 12.3125 -4.0625 10.75 -2.875 C 9.1875 -1.695312 7.660156 -0.367188 6.171875 1.109375 C 4.921875 8.609375 3.550781 14.691406 2.0625 19.359375 C 1.75 20.316406 1.40625 21.285156 1.03125 22.265625 C 0.664062 23.253906 0.265625 24.175781 -0.171875 25.03125 C -0.609375 25.894531 -1.070312 26.617188 -1.5625 27.203125 C -2.050781 27.796875 -2.550781 28.164062 -3.0625 28.3125 C -3.207031 28.351562 -3.363281 28.375 -3.53125 28.375 C -4.019531 28.375 -4.445312 28.160156 -4.8125 27.734375 C -5.257812 27.160156 -5.550781 26.289062 -5.6875 25.125 C -5.820312 23.957031 -5.789062 22.585938 -5.59375 21.015625 C -5.40625 19.441406 -5.039062 17.773438 -4.5 16.015625 C -3.957031 14.253906 -3.234375 12.503906 -2.328125 10.765625 C -1.222656 8.660156 -0.0507812 6.769531 1.1875 5.09375 C 2.4375 3.414062 3.726562 1.890625 5.0625 0.515625 C 5.382812 -1.484375 5.703125 -3.578125 6.015625 -5.765625 C 5.742188 -5.335938 5.445312 -4.90625 5.125 -4.46875 C 4.8125 -4.039062 4.492188 -3.632812 4.171875 -3.25 C 3.742188 -2.738281 3.347656 -2.40625 2.984375 -2.25 C 2.628906 -2.101562 2.320312 -2.050781 2.0625 -2.09375 C 1.8125 -2.144531 1.625 -2.210938 1.5 -2.296875 C 1.03125 -2.566406 0.707031 -3.054688 0.53125 -3.765625 C 0.363281 -4.484375 0.34375 -5.328125 0.46875 -6.296875 C 0.601562 -7.273438 0.882812 -8.296875 1.3125 -9.359375 C 1.375 -9.503906 1.484375 -9.609375 1.640625 -9.671875 C 1.796875 -9.742188 1.953125 -9.75 2.109375 -9.6875 C 2.253906 -9.613281 2.363281 -9.503906 2.4375 -9.359375 C 2.507812 -9.210938 2.515625 -9.054688 2.453125 -8.890625 C 2.023438 -7.890625 1.765625 -6.988281 1.671875 -6.1875 C 1.578125 -5.394531 1.582031 -4.75 1.6875 -4.25 C 1.789062 -3.75 1.941406 -3.445312 2.140625 -3.34375 C 2.367188 -3.195312 2.726562 -3.421875 3.21875 -4.015625 C 3.644531 -4.523438 4.066406 -5.085938 4.484375 -5.703125 C 4.910156 -6.316406 5.296875 -6.90625 5.640625 -7.46875 C 5.992188 -8.03125 6.28125 -8.492188 6.5 -8.859375 C 6.664062 -9.148438 6.910156 -9.242188 7.234375 -9.140625 C 7.546875 -9.015625 7.679688 -8.789062 7.640625 -8.46875 C 7.273438 -5.8125 6.90625 -3.296875 6.53125 -0.921875 C 7.863281 -2.171875 9.21875 -3.304688 10.59375 -4.328125 C 11.976562 -5.347656 13.363281 -6.304688 14.75 -7.203125 C 14.875 -7.285156 15.019531 -7.3125 15.1875 -7.28125 C 15.351562 -7.25 15.484375 -7.15625 15.578125 -7 Z M 0.890625 19.015625 C 2.242188 14.765625 3.507812 9.335938 4.6875 2.734375 C 3.625 3.921875 2.59375 5.21875 1.59375 6.625 C 0.59375 8.039062 -0.347656 9.613281 -1.234375 11.34375 C -2.191406 13.1875 -2.925781 14.96875 -3.4375 16.6875 C -3.945312 18.40625 -4.269531 19.972656 -4.40625 21.390625 C -4.550781 22.816406 -4.5625 24.015625 -4.4375 24.984375 C -4.320312 25.953125 -4.128906 26.601562 -3.859375 26.9375 C -3.742188 27.0625 -3.648438 27.128906 -3.578125 27.140625 C -3.503906 27.148438 -3.445312 27.144531 -3.40625 27.125 C -3.320312 27.101562 -3.160156 27.003906 -2.921875 26.828125 C -2.691406 26.648438 -2.382812 26.289062 -2 25.75 C -1.625 25.207031 -1.191406 24.398438 -0.703125 23.328125 C -0.210938 22.253906 0.316406 20.816406 0.890625 19.015625 Z M 0.890625 19.015625 " fill-rule="nonzero"></path><path transform="matrix(0.470371,0,0,0.470371,276.449942,141.65604)" stroke="none" fill="#000000" data-view-type="laser" d="M 31.109375 -7.296875 C 31.210938 -7.140625 31.25 -6.984375 31.21875 -6.828125 C 31.1875 -6.671875 31.097656 -6.539062 30.953125 -6.4375 C 27.660156 -4.070312 24.65625 -1.84375 21.9375 0.25 C 22.21875 1.125 22.25 2.082031 22.03125 3.125 C 21.695312 4.925781 21.085938 6.609375 20.203125 8.171875 C 19.328125 9.734375 18.296875 11.15625 17.109375 12.4375 C 15.929688 13.71875 14.703125 14.816406 13.421875 15.734375 C 12.140625 16.660156 10.914062 17.382812 9.75 17.90625 C 8.582031 18.425781 7.570312 18.71875 6.71875 18.78125 C 6.59375 18.800781 6.476562 18.8125 6.375 18.8125 C 5.707031 18.8125 5.234375 18.679688 4.953125 18.421875 C 4.679688 18.160156 4.503906 17.910156 4.421875 17.671875 C 3.929688 16.335938 5.070312 14.132812 7.84375 11.0625 C 10.613281 8 14.8125 4.269531 20.4375 -0.125 C 19.738281 -1.375 18.332031 -2.53125 16.21875 -3.59375 C 14.113281 -4.65625 11.316406 -5.890625 7.828125 -7.296875 C 7.429688 -7.460938 7.019531 -7.628906 6.59375 -7.796875 C 6.164062 -7.972656 5.726562 -8.15625 5.28125 -8.34375 C 3.757812 -8.976562 2.695312 -9.835938 2.09375 -10.921875 C 1.5 -12.003906 1.425781 -13.242188 1.875 -14.640625 C 2.21875 -15.722656 2.8125 -16.828125 3.65625 -17.953125 C 4.507812 -19.078125 5.539062 -20.195312 6.75 -21.3125 C 7.957031 -22.425781 9.269531 -23.488281 10.6875 -24.5 C 12.113281 -25.507812 13.570312 -26.425781 15.0625 -27.25 C 16.550781 -28.082031 18.003906 -28.785156 19.421875 -29.359375 C 20.847656 -29.929688 22.160156 -30.332031 23.359375 -30.5625 C 24.554688 -30.800781 25.566406 -30.828125 26.390625 -30.640625 C 26.734375 -30.546875 27.113281 -30.382812 27.53125 -30.15625 C 27.945312 -29.925781 28.273438 -29.550781 28.515625 -29.03125 C 28.753906 -28.507812 28.820312 -27.789062 28.71875 -26.875 C 28.675781 -26.707031 28.59375 -26.570312 28.46875 -26.46875 C 28.34375 -26.375 28.191406 -26.335938 28.015625 -26.359375 C 27.847656 -26.378906 27.710938 -26.457031 27.609375 -26.59375 C 27.503906 -26.738281 27.460938 -26.894531 27.484375 -27.0625 C 27.609375 -27.957031 27.507812 -28.550781 27.1875 -28.84375 C 26.875 -29.144531 26.523438 -29.335938 26.140625 -29.421875 C 25.335938 -29.609375 24.269531 -29.539062 22.9375 -29.21875 C 21.613281 -28.90625 20.132812 -28.375 18.5 -27.625 C 16.863281 -26.875 15.1875 -25.945312 13.46875 -24.84375 C 11.644531 -23.695312 10.003906 -22.5 8.546875 -21.25 C 7.097656 -20.007812 5.898438 -18.796875 4.953125 -17.609375 C 4.003906 -16.421875 3.375 -15.316406 3.0625 -14.296875 C 2.351562 -12.109375 3.253906 -10.492188 5.765625 -9.453125 C 6.210938 -9.285156 6.640625 -9.113281 7.046875 -8.9375 C 7.460938 -8.769531 7.882812 -8.601562 8.3125 -8.4375 C 10.457031 -7.570312 12.40625 -6.75 14.15625 -5.96875 C 15.90625 -5.195312 17.398438 -4.40625 18.640625 -3.59375 C 19.878906 -2.789062 20.8125 -1.890625 21.4375 -0.890625 C 24.101562 -2.972656 27.039062 -5.148438 30.25 -7.421875 C 30.394531 -7.523438 30.546875 -7.5625 30.703125 -7.53125 C 30.867188 -7.5 31.003906 -7.421875 31.109375 -7.296875 Z M 20.859375 2.859375 C 20.984375 2.222656 20.992188 1.628906 20.890625 1.078125 C 16.367188 4.628906 12.78125 7.75 10.125 10.4375 C 8.570312 12.03125 7.378906 13.445312 6.546875 14.6875 C 5.722656 15.9375 5.398438 16.796875 5.578125 17.265625 C 5.640625 17.429688 5.785156 17.53125 6.015625 17.5625 C 6.253906 17.59375 6.457031 17.597656 6.625 17.578125 C 7.320312 17.535156 8.203125 17.269531 9.265625 16.78125 C 10.328125 16.289062 11.453125 15.613281 12.640625 14.75 C 13.828125 13.894531 14.984375 12.875 16.109375 11.6875 C 17.234375 10.5 18.21875 9.160156 19.0625 7.671875 C 19.914062 6.179688 20.515625 4.578125 20.859375 2.859375 Z M 20.859375 2.859375 " fill-rule="nonzero"></path><path transform="matrix(0.470371,0,0,0.470371,290.333406,141.65604)" stroke="none" fill="#000000" data-view-type="laser" d="M 12.703125 -6.875 C 12.828125 -6.789062 12.910156 -6.660156 12.953125 -6.484375 C 13.003906 -6.316406 12.984375 -6.171875 12.890625 -6.046875 C 12.722656 -5.773438 12.453125 -5.351562 12.078125 -4.78125 C 11.710938 -4.207031 11.269531 -3.570312 10.75 -2.875 C 10.226562 -2.1875 9.675781 -1.519531 9.09375 -0.875 C 8.507812 -0.226562 7.929688 0.304688 7.359375 0.734375 C 6.785156 1.160156 6.253906 1.375 5.765625 1.375 C 5.597656 1.375 5.445312 1.34375 5.3125 1.28125 C 4.78125 1.082031 4.445312 0.59375 4.3125 -0.1875 C 4.175781 -0.976562 4.222656 -2.113281 4.453125 -3.59375 C 4.179688 -3.238281 3.882812 -2.867188 3.5625 -2.484375 C 3.25 -2.097656 2.910156 -1.75 2.546875 -1.4375 C 1.992188 -0.96875 1.523438 -0.773438 1.140625 -0.859375 C 0.765625 -0.941406 0.507812 -1.046875 0.375 -1.171875 C 0 -1.492188 -0.234375 -1.976562 -0.328125 -2.625 C -0.429688 -3.269531 -0.398438 -3.988281 -0.234375 -4.78125 C -0.078125 -5.582031 0.210938 -6.351562 0.640625 -7.09375 C 0.722656 -7.25 0.847656 -7.347656 1.015625 -7.390625 C 1.191406 -7.429688 1.351562 -7.410156 1.5 -7.328125 C 1.644531 -7.242188 1.738281 -7.117188 1.78125 -6.953125 C 1.820312 -6.796875 1.800781 -6.644531 1.71875 -6.5 C 1.332031 -5.863281 1.078125 -5.226562 0.953125 -4.59375 C 0.828125 -3.96875 0.789062 -3.429688 0.84375 -2.984375 C 0.894531 -2.546875 0.992188 -2.265625 1.140625 -2.140625 C 1.234375 -2.066406 1.347656 -2.078125 1.484375 -2.171875 C 1.617188 -2.273438 1.707031 -2.335938 1.75 -2.359375 C 2.15625 -2.710938 2.535156 -3.125 2.890625 -3.59375 C 3.253906 -4.0625 3.566406 -4.488281 3.828125 -4.875 C 4.160156 -5.34375 4.4375 -5.6875 4.65625 -5.90625 C 4.882812 -6.125 5.144531 -6.171875 5.4375 -6.046875 C 5.738281 -5.941406 5.890625 -5.707031 5.890625 -5.34375 C 5.890625 -4.988281 5.835938 -4.503906 5.734375 -3.890625 C 5.515625 -2.648438 5.414062 -1.75 5.4375 -1.1875 C 5.46875 -0.625 5.523438 -0.265625 5.609375 -0.109375 C 5.691406 0.046875 5.742188 0.125 5.765625 0.125 C 6.015625 0.226562 6.710938 -0.273438 7.859375 -1.390625 C 9.003906 -2.503906 10.332031 -4.269531 11.84375 -6.6875 C 11.925781 -6.832031 12.050781 -6.921875 12.21875 -6.953125 C 12.394531 -6.984375 12.554688 -6.957031 12.703125 -6.875 Z M 12.703125 -6.875 " fill-rule="nonzero"></path><path transform="matrix(0.470371,0,0,0.470371,295.694692,141.65604)" stroke="none" fill="#000000" data-view-type="laser" d="M 10.765625 -7.09375 C 10.910156 -7.007812 10.992188 -6.882812 11.015625 -6.71875 C 11.035156 -6.550781 11.003906 -6.398438 10.921875 -6.265625 C 9.671875 -4.523438 8.523438 -3.085938 7.484375 -1.953125 C 6.441406 -0.816406 5.398438 0.117188 4.359375 0.859375 C 3.578125 1.410156 2.800781 1.6875 2.03125 1.6875 C 1.4375 1.6875 0.921875 1.523438 0.484375 1.203125 C 0.179688 0.992188 -0.109375 0.617188 -0.390625 0.078125 C -0.679688 -0.460938 -0.835938 -1.25 -0.859375 -2.28125 C -0.878906 -3.3125 -0.625 -4.664062 -0.09375 -6.34375 C -0.09375 -6.34375 -0.09375 -6.351562 -0.09375 -6.375 C 0.539062 -8.40625 1.285156 -9.957031 2.140625 -11.03125 C 3.003906 -12.101562 3.742188 -12.648438 4.359375 -12.671875 C 4.847656 -12.691406 5.164062 -12.476562 5.3125 -12.03125 C 5.550781 -11.414062 5.273438 -10.539062 4.484375 -9.40625 C 3.703125 -8.269531 2.546875 -7.066406 1.015625 -5.796875 C 0.546875 -4.304688 0.320312 -3.140625 0.34375 -2.296875 C 0.363281 -1.460938 0.476562 -0.859375 0.6875 -0.484375 C 0.90625 -0.117188 1.078125 0.113281 1.203125 0.21875 C 1.847656 0.6875 2.664062 0.5625 3.65625 -0.15625 C 4.632812 -0.832031 5.625 -1.71875 6.625 -2.8125 C 7.625 -3.90625 8.71875 -5.289062 9.90625 -6.96875 C 10.007812 -7.101562 10.144531 -7.1875 10.3125 -7.21875 C 10.488281 -7.25 10.640625 -7.207031 10.765625 -7.09375 Z M 4.140625 -11.34375 C 3.910156 -11.1875 3.59375 -10.867188 3.1875 -10.390625 C 2.78125 -9.921875 2.363281 -9.226562 1.9375 -8.3125 C 2.707031 -9.050781 3.25 -9.679688 3.5625 -10.203125 C 3.882812 -10.722656 4.078125 -11.101562 4.140625 -11.34375 Z M 4.140625 -11.34375 " fill-rule="nonzero"></path></svg>